<svg width="500" height="500" viewBox="0 0 500 500" fill="none" xmlns="http://www.w3.org/2000/svg">
<path d="M490 250C490 382.548 382.548 490 250 490C117.452 490 10 382.548 10 250C10 117.452 117.452 10 250 10C382.548 10 490 117.452 490 250Z" fill="black"/>
<path d="M243.25 390.7C238 360.6 216.65 322.8 176.05 292.35C156.1 277.3 135.8 267.5 115.85 263.3V248.6C155.4 239.15 194.25 212.55 219.1 176.5C231.7 158.3 239.75 140.45 243.25 121.9H257.95C263.9 157.25 291.2 196.45 328.3 222.7C346.5 235.65 365.4 244.4 384.65 248.6V263.3C345.8 271.35 300.65 306 278.25 341.35C267.05 359.2 260.4 375.65 257.95 390.7H243.25Z" fill="white"/>
</svg>
